<svg width="31" height="31" fill="none" xmlns="http://www.w3.org/2000/svg"><path d="M9.041 23.25a2.58 2.58 0 0 0-2.57 2.583 2.58 2.58 0 0 0 2.57 2.583 2.59 2.59 0 0 0 2.583-2.583 2.59 2.59 0 0 0-2.583-2.583ZM1.291 2.583v2.583h2.583l4.65 9.804-1.743 3.165a2.497 2.497 0 0 0-.323 1.24 2.59 2.59 0 0 0 2.583 2.583h15.5v-2.583H9.584a.32.32 0 0 1-.323-.323l.038-.155 1.163-2.106h9.623c.968 0 1.821-.53 2.26-1.33l4.624-8.383c.104-.18.155-.4.155-.62 0-.71-.58-1.292-1.291-1.292H6.729L5.515 2.583H1.29ZM21.958 23.25a2.58 2.58 0 0 0-2.57 2.583 2.58 2.58 0 0 0 2.57 2.583 2.59 2.59 0 0 0 2.583-2.583 2.59 2.59 0 0 0-2.583-2.583Z" fill="#716969"/></svg>